<svg width="166" height="182" viewBox="0 0 166 182" fill="none" xmlns="http://www.w3.org/2000/svg">
<path d="M42.2112 95.8057C59.7598 140.863 66.8741 164.577 97.7026 164.577C128.531 164.577 175.011 85.8457 130.428 60.2343C86.7941 35.0971 88.2169 0 88.2169 0C88.2169 0 13.2798 22.2914 42.2112 95.8057V95.8057Z" fill="#D1D1D1"/>
<path d="M135.171 105.291C112.405 148.451 110.508 174.063 79.6798 174.063C48.8512 174.063 -7.11448 70.6685 42.6855 55.0171C104.343 35.5713 119.994 12.8056 119.994 12.8056C119.994 12.8056 168.845 40.7885 135.171 105.291Z" fill="#D9D9D9"/>
<path d="M138.965 66.3999C138.965 47.9028 58.3369 32.2514 44.1084 3.31995C44.1084 3.31995 5.21697 31.3028 19.9198 60.2342C28.457 76.3599 138.491 129.006 138.965 66.3999Z" fill="#E1E1E1"/>
<path d="M95.3314 82.9999C144.657 144.657 118.097 181.651 77.7828 181.651C37.4686 181.651 -6.64 142.76 4.74286 97.2285C16.1257 51.697 0 12.8056 0 12.8056C0 12.8056 57.8628 36.0456 95.3314 82.9999" fill="#F1F1F1"/>
<path d="M50.2743 78.257C-5.6914 134.697 40.3143 181.177 80.6286 181.177C120.943 181.177 153.669 143.234 153.669 96.7541C153.669 50.2741 166 21.817 166 21.817C166 21.817 90.1143 37.9427 50.2743 78.257" fill="#FAFAFA"/>
</svg>
